<svg width="504" height="504" viewBox="0 0 504 504" fill="none" xmlns="http://www.w3.org/2000/svg">
<path d="M252 485L234.446 492.271C237.389 499.376 244.324 504.006 252.015 504C259.705 503.994 266.633 499.353 269.565 492.244L252 485ZM252 19L269.554 11.7305C266.616 4.63499 259.695 0.00612269 252.015 6.02622e-06C244.335 -0.00611063 237.407 4.61173 234.457 11.7026L252 19ZM87.2463 87.2419L104.8 79.9711C102.372 74.1084 97.1769 69.8451 90.9532 68.6071C84.7295 67.369 78.2985 69.3197 73.8114 73.8067L87.2463 87.2419ZM416.249 86.7389L429.643 73.263C425.146 68.7932 418.716 66.8613 412.5 68.1126C406.284 69.3638 401.102 73.6333 398.684 79.4949L416.249 86.7389ZM416.728 416.784L399.173 424.054C401.601 429.916 406.795 434.18 413.019 435.418C419.242 436.657 425.673 434.707 430.16 430.221L416.728 416.784ZM86.7481 416.258L73.2729 429.653C77.7501 434.157 84.1815 436.127 90.4129 434.902C96.6443 433.677 101.852 429.419 104.291 423.556L86.7481 416.258ZM38 252C38 192.899 61.9328 139.424 100.681 100.677L73.8114 73.8067C28.2278 119.389 0 182.416 0 252H38ZM402.855 100.215C441.876 138.999 466 192.664 466 252H504C504 182.139 475.547 118.887 429.643 73.263L402.855 100.215ZM466 252C466 311.113 442.057 364.597 403.295 403.347L430.16 430.221C475.761 384.637 504 321.598 504 252H466ZM100.223 402.864C61.7445 364.154 38 310.868 38 252H0C0 321.309 28.0055 384.114 73.2729 429.653L100.223 402.864ZM104.291 423.556L269.543 26.2974L234.457 11.7026L69.2054 408.961L104.291 423.556ZM434.282 409.515L269.554 11.7305L234.446 26.2695L399.173 424.054L434.282 409.515ZM69.6925 94.5128L234.446 492.271L269.554 477.729L104.8 79.9711L69.6925 94.5128ZM398.684 79.4949L234.435 477.756L269.565 492.244L433.814 93.983L398.684 79.4949Z" fill="black"/>
<path d="M252 485L249.69 485.957C250.077 486.891 250.99 487.501 252.002 487.5C253.014 487.499 253.925 486.889 254.311 485.953L252 485ZM252 19L254.31 18.0435C253.923 17.1099 253.012 16.5008 252.002 16.5C250.991 16.4992 250.08 17.1068 249.692 18.0398L252 19ZM87.2463 87.2419L89.556 86.2852C89.2365 85.5138 88.553 84.9529 87.734 84.79C86.9151 84.6271 86.069 84.8838 85.4785 85.4741L87.2463 87.2419ZM416.249 86.7389L418.012 84.9658C417.42 84.3777 416.574 84.1235 415.756 84.2881C414.938 84.4527 414.256 85.0145 413.938 85.7858L416.249 86.7389ZM416.728 416.784L414.418 417.741C414.737 418.512 415.421 419.073 416.24 419.236C417.059 419.399 417.905 419.142 418.495 418.552L416.728 416.784ZM86.7481 416.258L84.9751 418.021C85.5642 418.613 86.4104 418.873 87.2303 418.711C88.0503 418.55 88.7355 417.99 89.0564 417.219L86.7481 416.258ZM21.5 252C21.5 188.347 47.2977 130.725 89.014 89.0097L85.4785 85.4741C42.8629 128.089 16.5 186.968 16.5 252H21.5ZM414.487 88.5121C456.496 130.266 482.5 188.094 482.5 252H487.5C487.5 186.709 460.927 127.62 418.012 84.9658L414.487 88.5121ZM482.5 252C482.5 315.666 456.692 373.299 414.96 415.016L418.495 418.552C461.126 375.935 487.5 317.045 487.5 252H482.5ZM88.5212 414.496C47.0947 372.82 21.5 315.402 21.5 252H16.5C16.5 316.775 42.6553 375.447 84.9751 418.021L88.5212 414.496ZM89.0564 417.219L254.308 19.9602L249.692 18.0398L84.4399 415.298L89.0564 417.219ZM419.037 415.828L254.31 18.0435L249.69 19.9565L414.418 417.741L419.037 415.828ZM84.9366 88.1986L249.69 485.957L254.31 484.043L89.556 86.2852L84.9366 88.1986ZM413.938 85.7858L249.689 484.047L254.311 485.953L418.56 87.6921L413.938 85.7858Z" fill="#1D77FF"/>
</svg>
